<svg height="512" viewBox="0 0 58 58" width="512" xmlns="http://www.w3.org/2000/svg"><g id="Page-1" fill="none" fill-rule="evenodd"><g id="077---Mobile-Wifi-Error" fill-rule="nonzero"><path id="Shape" d="m34 3v24.86l-13 30.14h-18c-1.65685425 0-3-1.3431458-3-3v-52c0-1.65685425 1.34314575-3 3-3h28c1.6568542 0 3 1.34314575 3 3z" fill="#67b9cc"/><path id="Shape" d="m34 15.6v12.26l-13 30.14h-18c-1.65685425 0-3-1.3431458-3-3v-13.81c8.86-2.86 24.14-9.85 34-25.59z" fill="#2fa8cc"/><path id="Shape" d="m27 0-2.861 3.052c-.5672653.60498515-1.3596648.94815313-2.189.948h-9.9c-.8293352.00015313-1.6217347-.34301485-2.189-.948l-2.861-3.052z" fill="#2980ba"/><g fill="#955ba5"><circle id="Oval" cx="17" cy="37" r="2"/><path id="Shape" d="m22 34c-.262482-.0013707-.5139013-.1058893-.7-.291-1.1855961-1.0611122-2.7094614-1.6667601-4.3-1.709-1.5897733.0339369-3.1139957.6400044-4.293 1.707-.3923789.3789722-1.0160848.3735524-1.4018186-.0121814s-.3911536-1.0094397-.0121814-1.4018186c1.5569845-1.4379909 3.5879206-2.2539952 5.707-2.293 2.1190794.0390048 4.1500155.8550091 5.707 2.293.2859079.2859943.3714219.7160366.216678 1.0896546-.1547439.3736179-.5192821.6172591-.923678.6173454z"/><path id="Shape" d="m25 30c-.2531899-.0000956-.4969182-.0962289-.682-.269-2.0557064-1.7196246-4.6383034-2.6834224-7.318-2.731-2.6804792.0383715-5.2652142 1.0025243-7.316 2.729-.40491911.3602197-1.02309159.3323243-1.39392077-.0629015s-.3593339-1.0139206.02592077-1.3950985c2.4199852-2.0775403 5.4947592-3.2357147 8.684-3.271 3.1892408.0352853 6.2640148 1.1934597 8.684 3.271.2989641.2807201.3962277.7155195.2453659 1.0968645-.1508618.3813451-.5192644.6319249-.9293659.6321355z"/><path id="Shape" d="m28 26c-.2483928.0001229-.4879409-.0922029-.672-.259-2.9252482-2.3707726-6.563046-3.6884528-10.328-3.741-3.7661699.0432615-7.40650491 1.361636-10.327 3.74-.40869071.3716876-1.04131236.3416907-1.413-.067s-.34169071-1.0413124.067-1.413c3.28417542-2.7221334 7.4074727-4.226909 11.673-4.26 4.2655273.033091 8.3888246 1.5378666 11.673 4.26.3057876.2779389.4091269.7153359.2600602 1.1007385-.1490666.3854027-.5198338.639424-.9330602.6392615z"/></g><path id="Shape" d="m4 11c-.4043959-.0000863-.76893405-.2437275-.92367798-.6173454-.15474393-.373618-.06922994-.80366035.21667798-1.0896546l2-2c.39237889-.37897221 1.01608478-.37355237 1.40181858.01218142.38573379.3857338.39115363 1.00943969.01218142 1.40181858l-2 2c-.18749273.1875494-.44180519.2929434-.707.293z" fill="#9fc9d3"/><path id="Shape" d="m4 17c-.4043959-.0000863-.76893405-.2437275-.92367798-.6173454-.15474393-.373618-.06922994-.8036603.21667798-1.0896546l8-8c.3923789-.37897221 1.0160848-.37355237 1.4018186.01218142.3857338.3857338.3911536 1.00943969.0121814 1.40181858l-8 8c-.18749273.1875494-.44180519.2929434-.707.293z" fill="#9fc9d3"/><path id="Shape" d="m23.16 53-2.16 5h-18c-1.65685425 0-3-1.3431458-3-3v-5c0 1.6568542 1.34314575 3 3 3z" fill="#2980ba"/><path id="Shape" d="m57.718 54.907-17.948-30.886c-.3655703-.6317287-1.0401214-1.020732-1.77-1.020732s-1.4044297.3890033-1.77 1.020732l-17.948 30.886c-.370278.6351323-.3734348 1.4195968-.0082804 2.0576886.3651543.6380918 1.0430984 1.0327895 1.7782804 1.0353114h35.9c.7344666-.003944 1.4111051-.3992029 1.7752857-1.0370346.3641807-.6378316.3606415-1.4214493-.0092857-2.0559654z" fill="#e64c3c"/><circle id="Oval" cx="38" cy="52" fill="#f0c419" r="2"/><rect id="Rectangle-path" fill="#f0c419" height="14" rx="2" width="4" x="36" y="32"/></g></g></svg>